<svg id="visual" viewBox="0 0 960 540" width="960" height="540" xmlns="http://www.w3.org/2000/svg" xmlns:xlink="http://www.w3.org/1999/xlink" version="1.1"><rect x="0" y="0" width="960" height="540" fill="#f3f5f8"></rect><path d="M0 364L22.8 363.5C45.7 363 91.3 362 137 354.7C182.7 347.3 228.3 333.7 274 338.7C319.7 343.7 365.3 367.3 411.2 376.2C457 385 503 379 548.8 380C594.7 381 640.3 389 686 385C731.7 381 777.3 365 823 362.8C868.7 360.7 914.3 372.3 937.2 378.2L960 384L960 541L937.2 541C914.3 541 868.7 541 823 541C777.3 541 731.7 541 686 541C640.3 541 594.7 541 548.8 541C503 541 457 541 411.2 541C365.3 541 319.7 541 274 541C228.3 541 182.7 541 137 541C91.3 541 45.7 541 22.8 541L0 541Z" fill="#d3d4ef"></path><path d="M0 412L22.8 408.2C45.7 404.3 91.3 396.7 137 390.7C182.7 384.7 228.3 380.3 274 377.5C319.7 374.7 365.3 373.3 411.2 370.7C457 368 503 364 548.8 362.5C594.7 361 640.3 362 686 370C731.7 378 777.3 393 823 399.5C868.7 406 914.3 404 937.2 403L960 402L960 541L937.2 541C914.3 541 868.7 541 823 541C777.3 541 731.7 541 686 541C640.3 541 594.7 541 548.8 541C503 541 457 541 411.2 541C365.3 541 319.7 541 274 541C228.3 541 182.7 541 137 541C91.3 541 45.7 541 22.8 541L0 541Z" fill="#b3affa"></path><path d="M0 418L22.8 422C45.7 426 91.3 434 137 439.8C182.7 445.7 228.3 449.3 274 450.5C319.7 451.7 365.3 450.3 411.2 442.3C457 434.3 503 419.7 548.8 415.5C594.7 411.3 640.3 417.7 686 424.7C731.7 431.7 777.3 439.3 823 435.8C868.7 432.3 914.3 417.7 937.2 410.3L960 403L960 541L937.2 541C914.3 541 868.7 541 823 541C777.3 541 731.7 541 686 541C640.3 541 594.7 541 548.8 541C503 541 457 541 411.2 541C365.3 541 319.7 541 274 541C228.3 541 182.7 541 137 541C91.3 541 45.7 541 22.8 541L0 541Z" fill="#9988ff"></path><path d="M0 475L22.8 474.5C45.7 474 91.3 473 137 469.8C182.7 466.7 228.3 461.3 274 454.7C319.7 448 365.3 440 411.2 439.8C457 439.7 503 447.3 548.8 455.2C594.7 463 640.3 471 686 472.3C731.7 473.7 777.3 468.3 823 467.5C868.7 466.7 914.3 470.3 937.2 472.2L960 474L960 541L937.2 541C914.3 541 868.7 541 823 541C777.3 541 731.7 541 686 541C640.3 541 594.7 541 548.8 541C503 541 457 541 411.2 541C365.3 541 319.7 541 274 541C228.3 541 182.7 541 137 541C91.3 541 45.7 541 22.8 541L0 541Z" fill="#875bff"></path><path d="M0 490L22.8 490.3C45.7 490.7 91.3 491.3 137 492.8C182.7 494.3 228.3 496.7 274 499.2C319.7 501.7 365.3 504.3 411.2 506.7C457 509 503 511 548.8 511.7C594.7 512.3 640.3 511.7 686 508.5C731.7 505.3 777.3 499.7 823 499.7C868.7 499.7 914.3 505.3 937.2 508.2L960 511L960 541L937.2 541C914.3 541 868.7 541 823 541C777.3 541 731.7 541 686 541C640.3 541 594.7 541 548.8 541C503 541 457 541 411.2 541C365.3 541 319.7 541 274 541C228.3 541 182.7 541 137 541C91.3 541 45.7 541 22.8 541L0 541Z" fill="#7f00ff"></path></svg>