<svg id="visual" viewBox="0 0 900 450" width="900" height="450" xmlns="http://www.w3.org/2000/svg" xmlns:xlink="http://www.w3.org/1999/xlink" version="1.1"><rect x="0" y="0" width="900" height="450" fill="#9fd1ea"></rect><path d="M0 332L21.5 332.8C43 333.7 86 335.3 128.8 343.7C171.7 352 214.3 367 257.2 365C300 363 343 344 385.8 335.7C428.7 327.3 471.3 329.7 514.2 337.3C557 345 600 358 642.8 349.7C685.7 341.3 728.3 311.7 771.2 314.5C814 317.3 857 352.7 878.5 370.3L900 388L900 451L878.5 451C857 451 814 451 771.2 451C728.3 451 685.7 451 642.8 451C600 451 557 451 514.2 451C471.3 451 428.7 451 385.8 451C343 451 300 451 257.2 451C214.3 451 171.7 451 128.8 451C86 451 43 451 21.5 451L0 451Z" fill="#0054d3" stroke-linecap="round" stroke-linejoin="miter"></path></svg>